# xmcd CD database file
#
# Track frame offsets:
#	150
#	16168
#	35631
#	62946
#	81692
#	105750
#	127594
#	143585
#	168086
#	186811
#
# Disc length: 2727 seconds
#
# Revision: 0
# Processed by: cddbd v1.5.2PL0 Copyright (c) Steve Scherf et al.
# Submitted via: CDex 1.51
#
DISCID=760aa50a
DTITLE=Dawson, Steve - Telescope
DYEAR=2008
DGENRE=Country
TTITLE0=Caballero's Dream
TTITLE1=Gunslinger Retreats and Lurks Underground, The
TTITLE2=Keith Lowe
TTITLE3=Chris Gestrin
TTITLE4=Speaker Damage
TTITLE5=Hunt is On, The
TTITLE6=Nailbiter
TTITLE7=Fun Machine Two
TTITLE8=No One Goes to the Park When it Rains
TTITLE9=1000 Year Old Egg
EXTD=YEAR: 2008
EXTT0=
EXTT1=
EXTT2=
EXTT3=
EXTT4=
EXTT5=
EXTT6=
EXTT7=
EXTT8=
EXTT9=
PLAYORDER=
